<?xml version="1.0" standalone="no"?>
<!DOCTYPE svg PUBLIC "-//W3C//DTD SVG 20010904//EN"
 "http://www.w3.org/TR/2001/REC-SVG-20010904/DTD/svg10.dtd">
<svg version="1.0" xmlns="http://www.w3.org/2000/svg"
 width="295.000000pt" height="295.000000pt" viewBox="0 0 295.000000 295.000000"
 preserveAspectRatio="xMidYMid meet">
<metadata>
Created by potrace 1.14, written by Peter Selinger 2001-2017
</metadata>
<g transform="translate(0.000000,295.000000) scale(0.100000,-0.100000)"
fill="#000000" stroke="none">
<path d="M2563 2853 c-13 -2 -23 -9 -23 -14 0 -6 -5 -7 -10 -4 -6 4 -16 2 -23
-3 -7 -6 -15 -11 -19 -11 -42 -6 -68 -15 -68 -23 0 -5 -5 -6 -10 -3 -6 4 -17
1 -25 -5 -8 -7 -15 -10 -15 -7 0 3 -15 0 -34 -8 -18 -8 -36 -11 -40 -8 -3 4
-6 1 -6 -5 0 -7 -3 -11 -7 -11 -5 1 -10 0 -13 -1 -10 -3 -45 -11 -57 -12 -7
-1 -13 -4 -13 -8 0 -6 -60 -27 -100 -36 -3 0 -18 -6 -33 -12 -15 -7 -31 -11
-35 -10 -4 1 -16 -2 -27 -6 -11 -5 -27 -10 -35 -14 -8 -3 -17 -6 -20 -7 -3 -1
-18 -7 -34 -14 -16 -6 -31 -9 -34 -7 -2 3 -11 -1 -19 -9 -8 -8 -23 -15 -33
-15 -11 0 -29 -4 -42 -9 -29 -12 -61 -24 -68 -26 -32 -8 -88 -30 -99 -39 -12
-9 -13 -8 -6 4 6 11 3 10 -12 -3 -11 -9 -22 -14 -25 -11 -4 3 -20 -2 -37 -11
-17 -8 -31 -13 -31 -11 0 3 -20 -3 -45 -14 -25 -11 -45 -17 -45 -14 0 2 -13
-2 -29 -10 -16 -9 -31 -12 -35 -9 -3 4 -6 0 -6 -7 0 -7 -3 -11 -6 -8 -3 4 -22
0 -42 -9 -20 -8 -43 -16 -51 -18 -32 -6 -236 -78 -241 -84 -3 -4 -16 -7 -30
-6 -14 0 -28 -4 -32 -9 -3 -5 -14 -11 -22 -13 -24 -5 -39 -9 -61 -18 -11 -4
-35 -14 -54 -22 -19 -7 -36 -11 -39 -8 -3 3 -11 0 -19 -6 -7 -6 -13 -8 -13 -4
0 4 -7 2 -15 -5 -8 -7 -15 -9 -15 -4 0 5 -4 3 -8 -4 -5 -7 -18 -14 -30 -17
-11 -2 -29 -8 -39 -13 -10 -5 -24 -7 -30 -5 -7 3 -13 0 -13 -6 0 -6 -7 -8 -15
-5 -8 4 -15 2 -15 -4 0 -6 -8 -9 -17 -7 -10 1 -26 -4 -36 -13 -9 -8 -17 -12
-17 -8 0 4 -9 2 -21 -4 -20 -11 -53 -21 -76 -22 -7 -1 -13 -5 -13 -9 0 -8 -57
-23 -63 -17 -2 2 -11 -3 -20 -11 -9 -7 -24 -11 -32 -7 -8 3 -15 2 -15 -3 0 -5
-12 -12 -27 -16 -16 -3 -42 -13 -60 -22 -17 -8 -40 -16 -50 -17 -20 -3 -29
-37 -17 -64 10 -24 15 -44 16 -70 0 -13 7 -26 14 -29 8 -3 11 -9 8 -14 -3 -5
0 -26 7 -47 7 -20 12 -39 11 -42 0 -3 3 -9 7 -15 12 -15 13 -71 14 -875 l2
-745 1322 0 c1252 0 1322 1 1327 17 2 11 0 15 -6 11 -7 -4 -8 -1 -2 8 11 18
12 149 1 149 -5 0 -5 6 0 13 10 16 10 177 0 177 -5 0 -5 5 -1 12 11 17 11 308
1 308 -5 0 -5 5 -1 12 11 17 11 308 1 308 -5 0 -5 5 -1 12 10 16 11 308 1 308
-4 0 -4 8 1 18 10 20 7 200 -3 210 -4 4 -562 7 -1241 8 -919 0 -1238 4 -1246
12 -9 9 -4 13 20 18 18 4 32 11 32 17 0 6 3 8 6 4 4 -3 22 0 40 8 19 8 34 11
34 7 0 -4 4 -1 8 5 4 7 19 15 32 17 14 2 25 5 25 6 0 1 8 3 17 5 9 2 31 10 49
19 17 9 35 13 40 11 4 -3 10 -1 14 5 4 6 10 8 15 5 5 -3 11 -1 15 5 4 6 11 8
16 5 5 -4 9 -1 9 6 0 7 3 9 6 6 4 -3 15 -2 26 4 11 6 29 13 41 15 12 3 27 6
32 8 6 1 21 8 33 15 13 7 26 10 29 7 3 -3 18 1 32 9 23 13 178 69 221 80 8 2
29 9 45 15 17 7 41 14 53 16 13 3 35 12 48 20 13 9 30 14 38 11 7 -3 19 0 25
6 10 10 30 17 59 19 6 1 12 5 12 10 0 4 3 7 8 7 4 -1 10 0 15 1 4 1 10 3 15 5
4 1 20 7 35 13 16 7 36 12 46 12 10 0 21 3 25 8 4 4 11 7 14 8 4 0 20 6 35 12
16 7 32 12 36 12 4 0 22 7 39 16 17 8 41 16 52 17 11 1 20 4 20 7 0 4 6 7 13
8 6 0 19 3 27 5 87 24 113 34 117 44 3 6 11 9 19 6 8 -3 14 -1 14 3 0 5 14 10
31 11 17 1 37 7 43 12 7 6 21 12 32 14 10 2 27 7 36 11 9 4 22 9 30 10 17 4
67 23 95 37 11 6 26 8 32 5 6 -4 11 -2 11 4 0 7 7 10 15 6 8 -3 15 -1 15 5 0
5 6 9 13 8 6 -1 26 4 42 11 17 7 33 13 38 12 4 -1 7 2 7 6 0 4 8 8 18 9 25 3
123 39 117 44 -2 3 12 4 30 4 19 -1 35 2 35 6 0 4 24 15 53 25 28 9 57 21 63
25 6 5 14 6 17 2 11 -10 8 47 -5 104 -7 29 -16 53 -21 53 -4 0 -5 5 -2 10 3 6
2 10 -4 10 -6 0 -8 7 -5 15 4 8 1 15 -5 15 -6 0 -8 7 -5 15 4 8 1 15 -6 15 -6
0 -8 4 -5 10 3 5 -1 19 -9 31 -8 12 -12 28 -9 35 5 14 -15 16 -64 7z"/>
</g>
</svg>
